<?xml version="1.0" encoding="UTF-8"?> <!-- Generator: Adobe Illustrator 25.1.0, SVG Export Plug-In . SVG Version: 6.00 Build 0) --> <svg xmlns="http://www.w3.org/2000/svg" xmlns:xlink="http://www.w3.org/1999/xlink" version="1.1" id="Layer_1" x="0px" y="0px" viewBox="0 0 2544 346" style="enable-background:new 0 0 2544 346;" xml:space="preserve"> <style type="text/css"> .st0{fill:#FFFFFF;} .st1{fill:#3B4FE4;} </style> <g> <path class="st0" d="M6.22,175.27c0-98.97,74.79-163.46,163.92-163.46c43.44,0,95.39,15.22,128.98,68.97l-44.79,30.9 c-20.6-29.57-51.5-41.66-82.4-41.66c-56.43,0-103,40.75-103,105.24c0,64.94,47.02,105.24,103.45,105.24 c31.8,0,61.36-12.09,81.96-41.64l44.79,30.9c-33.59,53.73-85.54,68.97-128.98,68.97C80.57,338.74,6.22,274.25,6.22,175.27z"></path> <path class="st0" d="M601.02,16.29h64.49l62.25,211.82l68.07-211.82h48.82l67.63,211.82l62.7-211.82h64.49l-98.98,317.97h-48.36 l-72.11-214.08l-71.66,214.08h-48.82L601.02,16.29z"></path> <path class="st0" d="M343.09,217.82c0-78.82,61.8-120.92,122.71-120.92c60.46,0,122.71,42.1,122.71,120.92 S526.26,338.74,465.8,338.74C404.89,338.74,343.09,296.64,343.09,217.82z M528.94,217.82c0-41.64-29.55-66.73-63.14-66.73 c-33.59,0-63.6,25.09-63.6,66.73s30,66.73,63.6,66.73C499.39,284.55,528.94,259.46,528.94,217.82z"></path> <path class="st0" d="M1516.75,98.69v57.32c-5.38-0.89-9.86-1.34-15.23-1.34c-45.23,0-73.45,31.35-73.45,77.92v101.67h-60.01V101.38 h60.01v60.47c8.06-35.83,30.9-64.95,73.01-64.95C1506.45,96.89,1511.38,97.35,1516.75,98.69z"></path> <path class="st0" d="M1639.88,244.69l-29.11,32.25v57.32h-60.01V16.29h60.01v184.06l87.33-98.98h71.66l-92.7,102.56l103,130.33 h-67.18L1639.88,244.69z"></path> <path class="st1" d="M1946.18,72.71h-145.55V16.29h240.94l-152.72,261.54h148.24v56.43h-243.18L1946.18,72.71z"></path> <path class="st1" d="M2537,197.21v137.05h-60.01V207.08c0-34.05-18.37-56.43-49.71-56.43c-30.9,0-49.71,22.39-49.71,56.43v127.19 h-60.01V101.38h60.01v31.81c13-20.61,36.29-36.29,71.21-36.29C2496.69,96.89,2537,126.46,2537,197.21z"></path> <g> <rect x="1030.68" y="276.2" class="st1" width="304.98" height="58.07"></rect> <circle class="st1" cx="1176.79" cy="162.54" r="56.8"></circle> </g> <path class="st1" d="M2285.39,241.76h-172.98c8.46,31.57,36.03,48.02,70.71,48.02c22.68,0,42.69-6.23,59.59-20.9l27.13,28.9 c-19.12,24.02-52.47,40.92-93.39,40.92c-63.58,0-120.5-43.15-120.5-120.07c0-77.82,57.8-120.07,116.95-120.07 C2231.6,98.56,2298.3,139.93,2285.39,241.76z M2111.53,198.17h120.95c-3.55-32.89-31.13-49.35-59.14-49.35 C2145.76,148.82,2119.08,164.82,2111.53,198.17z"></path> </g> </svg> 